<svg aria-hidden="true" style="position: absolute; width: 0; height: 0; overflow: hidden;" version="1.1" xmlns="http://www.w3.org/2000/svg" xmlns:xlink="http://www.w3.org/1999/xlink">
<defs>
<symbol id="telegram" viewBox="0 0 32 32">
<path d="M30 16c0 7.732-6.268 14-14 14s-14-6.268-14-14c0-7.732 6.268-14 14-14s14 6.268 14 14z"></path>
<path d="M22.987 10.209c0.124-0.806-0.642-1.441-1.358-1.127l-14.264 6.263c-0.514 0.225-0.476 1.003 0.056 1.173l2.942 0.937c0.562 0.179 1.17 0.086 1.66-0.253l6.632-4.582c0.2-0.138 0.418 0.147 0.247 0.323l-4.774 4.922c-0.463 0.477-0.371 1.286 0.186 1.636l5.345 3.351c0.6 0.376 1.37-0.001 1.483-0.726l1.845-11.917z"></path>
</symbol>
<symbol id="menu-right" viewBox="0 0 32 32">
<path d="M28.8 8c0.884 0 1.6-0.716 1.6-1.6s-0.716-1.6-1.6-1.6v0h-25.6c-0.884 0-1.6 0.716-1.6 1.6s0.716 1.6 1.6 1.6v0h25.6zM28.8 14.4c0.884 0 1.6-0.716 1.6-1.6s-0.716-1.6-1.6-1.6v0h-12.8c-0.884 0-1.6 0.716-1.6 1.6s0.716 1.6 1.6 1.6v0h12.8zM30.4 19.2c0 0.884-0.716 1.6-1.6 1.6v0h-25.6c-0.884 0-1.6-0.716-1.6-1.6s0.716-1.6 1.6-1.6v0h25.6c0.884 0 1.6 0.716 1.6 1.6v0zM28.8 27.2c0.884 0 1.6-0.716 1.6-1.6s-0.716-1.6-1.6-1.6v0h-12.8c-0.884 0-1.6 0.716-1.6 1.6s0.716 1.6 1.6 1.6v0h12.8z"></path>
</symbol>
<symbol id="menu-center" viewBox="0 0 32 32">
<path d="M28.8 8c0.884 0 1.6-0.716 1.6-1.6s-0.716-1.6-1.6-1.6v0h-25.6c-0.884 0-1.6 0.716-1.6 1.6s0.716 1.6 1.6 1.6v0h25.6zM22.4 14.4c0.884 0 1.6-0.716 1.6-1.6s-0.716-1.6-1.6-1.6v0h-12.8c-0.884 0-1.6 0.716-1.6 1.6s0.716 1.6 1.6 1.6v0h12.8zM30.4 19.2c0 0.884-0.716 1.6-1.6 1.6v0h-25.6c-0.884 0-1.6-0.716-1.6-1.6s0.716-1.6 1.6-1.6v0h25.6c0.884 0 1.6 0.716 1.6 1.6v0zM22.4 27.2c0.884 0 1.6-0.716 1.6-1.6s-0.716-1.6-1.6-1.6v0h-12.8c-0.884 0-1.6 0.716-1.6 1.6s0.716 1.6 1.6 1.6v0h12.8z"></path>
</symbol>
<symbol id="next" viewBox="0 0 32 32">
<path fill="#f5f5f5" style="fill: var(--color3, #f5f5f5)" d="M4.923 1.846h22.154c2.379 0 4.308 1.929 4.308 4.308v19.692c0 2.379-1.929 4.308-4.308 4.308h-22.154c-2.379 0-4.308-1.929-4.308-4.308v-19.692c0-2.379 1.929-4.308 4.308-4.308z"></path>
<path fill="none" stroke="#eee" style="stroke: var(--color4, #eee)" stroke-linejoin="miter" stroke-linecap="butt" stroke-miterlimit="4" stroke-width="1.2308" d="M4.923 1.846h22.154c2.379 0 4.308 1.929 4.308 4.308v19.692c0 2.379-1.929 4.308-4.308 4.308h-22.154c-2.379 0-4.308-1.929-4.308-4.308v-19.692c0-2.379 1.929-4.308 4.308-4.308z"></path>
<path fill="#404b52" style="fill: var(--color5, #404b52)" d="M12.731 12.239h2.127l3.397 3.353-3.397 3.353h-2.127l3.412-3.353-3.412-3.353z"></path>
</symbol>
<symbol id="rolled-up" viewBox="0 0 32 32">
<path d="M5.808 18.336c-0.992 0-1.824-0.336-2.496-1.008s-1.008-1.504-1.008-2.496c0-0.992 0.336-1.824 1.008-2.496s1.504-1.008 2.496-1.008c0.96 0 1.776 0.336 2.448 1.008s1.008 1.504 1.008 2.496c0 0.992-0.336 1.824-1.008 2.496s-1.488 1.008-2.448 1.008zM16.906 18.336c-0.992 0-1.824-0.336-2.496-1.008s-1.008-1.504-1.008-2.496c0-0.992 0.336-1.824 1.008-2.496s1.504-1.008 2.496-1.008c0.96 0 1.776 0.336 2.448 1.008s1.008 1.504 1.008 2.496c0 0.992-0.336 1.824-1.008 2.496s-1.488 1.008-2.448 1.008zM28.004 18.336c-0.992 0-1.824-0.336-2.496-1.008s-1.008-1.504-1.008-2.496c0-0.992 0.336-1.824 1.008-2.496s1.504-1.008 2.496-1.008c0.96 0 1.776 0.336 2.448 1.008s1.008 1.504 1.008 2.496c0 0.992-0.336 1.824-1.008 2.496s-1.488 1.008-2.448 1.008z"></path>
</symbol>

<symbol id="search" viewBox="0 0 32 32">
<path fill="none" stroke="#7e7e7e" style="stroke: var(--color6, #7e7e7e)" stroke-linejoin="round" stroke-linecap="round" stroke-miterlimit="4" stroke-width="2.6667" d="M14.667 25.333c5.891 0 10.667-4.776 10.667-10.667s-4.776-10.667-10.667-10.667c-5.891 0-10.667 4.776-10.667 10.667s4.776 10.667 10.667 10.667z"></path>
<path fill="none" stroke="#7e7e7e" style="stroke: var(--color6, #7e7e7e)" stroke-linejoin="round" stroke-linecap="round" stroke-miterlimit="4" stroke-width="2.6667" d="M28 28l-5.8-5.8"></path>
</symbol>
<symbol id="chevron-right" viewBox="0 0 32 32">
<path fill="none" stroke="#9197b3" style="stroke: var(--color7, #9197b3)" stroke-linejoin="round" stroke-linecap="round" stroke-miterlimit="4" stroke-width="4" d="M12 24l8-8-8-8"></path>
</symbol>
<symbol id="mobile" viewBox="0 0 32 32">
<path d="M23 0h-14c-1.65 0-3 1.35-3 3v26c0 1.65 1.35 3 3 3h14c1.65 0 3-1.35 3-3v-26c0-1.65-1.35-3-3-3zM12 1.5h8v1h-8v-1zM16 30c-1.105 0-2-0.895-2-2s0.895-2 2-2 2 0.895 2 2-0.895 2-2 2zM24 24h-16v-20h16v20z"></path>
</symbol>
<symbol id="cancel" viewBox="0 0 32 32">
<path d="M16 0c-8.837 0-16 7.163-16 16s7.163 16 16 16 16-7.163 16-16-7.163-16-16-16zM16 29c-7.18 0-13-5.82-13-13s5.82-13 13-13 13 5.82 13 13-5.82 13-13 13z"></path>
<path d="M21 8l-5 5-5-5-3 3 5 5-5 5 3 3 5-5 5 5 3-3-5-5 5-5z"></path>
</symbol>
<symbol id="mail" viewBox="0 0 32 32">
<path d="M26.666 0h-21.332c-2.934 0-5.334 2.4-5.334 5.333v21.333c0 2.934 2.4 5.334 5.334 5.334h21.332c2.936 0 5.334-2.4 5.334-5.334v-21.333c0-2.934-2.398-5.333-5.334-5.333zM8 8h16c0.286 0 0.563 0.061 0.817 0.177l-8.817 10.286-8.817-10.287c0.254-0.116 0.531-0.177 0.817-0.177zM6 22v-12c0-0.042 0.002-0.084 0.004-0.125l5.864 6.842-5.8 5.8c-0.045-0.167-0.069-0.34-0.069-0.517zM24 24h-16c-0.177 0-0.35-0.024-0.517-0.069l5.691-5.691 2.826 3.297 2.826-3.297 5.691 5.691c-0.167 0.045-0.34 0.069-0.517 0.069zM26 22c0 0.177-0.024 0.35-0.069 0.517l-5.8-5.8 5.864-6.842c0.003 0.041 0.004 0.083 0.004 0.125v12z"></path>
</symbol>

<symbol id="double-up" viewBox="0 0 32 32">
  <path d="M15.293 9.707a1 1 0 001.414-1.414l-6-6a1 1 0 00-1.414 0l-6 6a1 1 0 001.414 1.414L10 4.414l5.293 5.293zm0 8a1 1 0 001.414-1.414l-6-6a1 1 0 00-1.414 0l-6 6a1 1 0 101.414 1.414L10 12.414l5.293 5.293z"/>
</symbol>
<symbol id="arrow-left" viewBox="0 0 32 32">
  <path d="M.576 4.576a.6.6 0 0 0 0 .848l3.818 3.819a.6.6 0 1 0 .849-.849L1.848 5l3.395-3.394a.6.6 0 1 0-.849-.849L.576 4.576ZM18 4.4H1v1.2h17V4.4Z"/>
</symbol>
<symbol id="arrow-right" viewBox="0 0 32 32">
  <path d="M17.424 5.424a.6.6 0 0 0 0-.848L13.606.757a.6.6 0 1 0-.849.849L16.151 5l-3.394 3.394a.6.6 0 1 0 .849.849l3.818-3.819ZM0 5.6h17V4.4H0v1.2Z" fill="#000"/>
</symbol>
</defs>
</svg>
